<?xml version="1.0" encoding="UTF-8"?>
<svg width="16px" height="16px" viewBox="0 0 16 16" version="1.1" xmlns="http://www.w3.org/2000/svg" xmlns:xlink="http://www.w3.org/1999/xlink">
    <!-- Generator: Sketch 63.1 (92452) - https://sketch.com -->
    <title>Path</title>
    <desc>Created with Sketch.</desc>
    <g id="Page-1" stroke="none" stroke-width="1" fill="none" fill-rule="evenodd" opacity="0.15">
        <g id="restaurant-details" transform="translate(-20.000000, -368.000000)">
            <g id="Group-10" transform="translate(0.000000, 68.000000)">
                <g id="Group-12" transform="translate(0.000000, 257.000000)">
                    <g id="Group-7" transform="translate(20.000000, 42.000000)">
                        <g id="phone-fill-(1)" transform="translate(0.000000, 1.000000)">
                            <polygon id="Path" points="0 0 16 0 16 16 0 16"></polygon>
                            <path d="M14,10.9466667 L14,13.304 C14.0001586,13.6541963 13.7293373,13.9448196 13.38,13.9693333 C13.0886667,13.9893333 12.8506667,13.9999998 12.6666667,13.9999998 C6.77533333,13.9999998 2,9.22466667 2,3.33333333 C2,3.14933333 2.01,2.91133333 2.03066667,2.62 C2.05518037,2.27066274 2.34580374,1.99984136 2.696,1.99999983 L5.05333333,1.99999983 C5.22464935,1.99982654 5.36820181,2.12954261 5.38533333,2.3 C5.40066667,2.45333333 5.41466667,2.57533333 5.428,2.668 C5.56048949,3.59261547 5.83200187,4.49188785 6.23333333,5.33533333 C6.29666667,5.46866667 6.25533333,5.628 6.13533333,5.71333333 L4.69666667,6.74133333 C5.57630223,8.79096758 7.20969908,10.4243644 9.25933333,11.304 L10.286,9.868 C10.3726003,9.74693045 10.5333927,9.70511883 10.668,9.76866667 C11.5113477,10.1692437 12.4103863,10.4400791 13.3346667,10.572 C13.4273333,10.5853333 13.5493333,10.6 13.7013333,10.6146667 C13.8715266,10.6321173 14.0008746,10.7755813 14.0006669,10.9466667 L14,10.9466667 Z" id="Path" fill="#000000" fill-rule="nonzero"></path>
                        </g>
                    </g>
                </g>
            </g>
        </g>
    </g>
</svg>