<?xml version="1.0" encoding="UTF-8"?>
<svg width="200px" height="200px" viewBox="0 0 200 200" version="1.1" xmlns="http://www.w3.org/2000/svg" xmlns:xlink="http://www.w3.org/1999/xlink">
    <!-- Generator: Sketch 63.1 (92452) - https://sketch.com -->
    <title>Group 9</title>
    <desc>Created with Sketch.</desc>
    <g id="Page-1" stroke="none" stroke-width="1" fill="none" fill-rule="evenodd">
        <g id="Artboard" transform="translate(-121.000000, -120.000000)">
            <g id="Group-9" transform="translate(121.000000, 120.000000)">
                <rect id="Rectangle" fill="#F0F0F0" x="0" y="0" width="200" height="200"></rect>
                <g id="cutlery" transform="translate(55.555556, 44.444444)" fill="#FFFFFF" fill-rule="nonzero">
                    <path d="M69.4444444,29.5138889 C71.8415799,29.5138889 73.7847222,27.5707465 73.7847222,25.1736111 L73.7847222,4.34027778 C73.7847222,1.94314236 71.8415799,0 69.4444444,0 C67.047309,0 65.1041667,1.94314236 65.1041667,4.34027778 L65.1041667,25.1736111 C65.1041667,27.5707465 67.047309,29.5138889 69.4444444,29.5138889 Z" id="Path"></path>
                    <path d="M84.6354167,0 C82.2382812,0 80.2951389,1.94314236 80.2951389,4.34027778 L80.2951389,26.0416667 C80.2951389,35.4522569 75.3261719,43.4027778 69.4444444,43.4027778 C63.562717,43.4027778 58.59375,35.4522569 58.59375,26.0416667 L58.59375,4.34027778 C58.59375,1.94314236 56.6506076,0 54.2534722,0 C51.8563368,0 49.9131944,1.94314236 49.9131944,4.34027778 L49.9131944,26.0416667 C49.9131944,36.7118056 55.0722656,48.4294705 65.1041667,51.4383681 L65.1041667,106.770833 C65.1041667,109.167969 67.047309,111.111111 69.4444444,111.111111 C71.8415799,111.111111 73.7847222,109.167969 73.7847222,106.770833 L73.7847222,51.4383681 C83.8140191,48.4301215 88.9756944,36.7198351 88.9756944,26.0416667 L88.9756944,4.34027778 C88.9756944,1.94314236 87.0325521,0 84.6354167,0 Z" id="Path"></path>
                    <path d="M19.53125,0 C9.46766493,0 0,10.5143229 0,26.0416667 C0,36.7198351 5.16167535,48.4301215 15.1909722,51.4383681 L15.1909722,106.770833 C15.1909722,109.167969 17.1341146,111.111111 19.53125,111.111111 C21.9283854,111.111111 23.8715278,109.167969 23.8715278,106.770833 L23.8715278,51.4383681 C33.9034288,48.4294705 39.0625,36.7118056 39.0625,26.0416667 C39.0625,10.0518663 29.2534722,0 19.53125,0 Z M19.53125,43.4027778 C13.6495226,43.4027778 8.68055556,35.4522569 8.68055556,26.0416667 C8.68055556,16.6310764 13.6495226,8.68055556 19.53125,8.68055556 C25.4129774,8.68055556 30.3819444,16.6310764 30.3819444,26.0416667 C30.3819444,35.4522569 25.4129774,43.4027778 19.53125,43.4027778 Z" id="Shape"></path>
                </g>
            </g>
        </g>
    </g>
</svg>