<?xml version="1.0" encoding="UTF-8"?>
<svg width="120px" height="120px" viewBox="0 0 120 120" version="1.1" xmlns="http://www.w3.org/2000/svg" xmlns:xlink="http://www.w3.org/1999/xlink">
    <!-- Generator: Sketch 63.1 (92452) - https://sketch.com -->
    <title>Oval</title>
    <desc>Created with Sketch.</desc>
    <g id="Page-1" stroke="none" stroke-width="1" fill="none" fill-rule="evenodd">
        <g id="empty" transform="translate(-128.000000, -188.000000)">
            <g id="Group-9" transform="translate(128.000000, 188.000000)">
                <circle id="Oval" fill="#F0F0F0" cx="60" cy="60" r="60"></circle>
                <g id="cutlery" transform="translate(33.333333, 26.666667)" fill="#FFFFFF" fill-rule="nonzero">
                    <path d="M41.6666667,17.7083333 C43.1049479,17.7083333 44.2708333,16.5424479 44.2708333,15.1041667 L44.2708333,2.60416667 C44.2708333,1.16588542 43.1049479,0 41.6666667,0 C40.2283854,0 39.0625,1.16588542 39.0625,2.60416667 L39.0625,15.1041667 C39.0625,16.5424479 40.2283854,17.7083333 41.6666667,17.7083333 Z" id="Path"></path>
                    <path d="M50.78125,0 C49.3429687,0 48.1770833,1.16588542 48.1770833,2.60416667 L48.1770833,15.625 C48.1770833,21.2713542 45.1957031,26.0416667 41.6666667,26.0416667 C38.1376302,26.0416667 35.15625,21.2713542 35.15625,15.625 L35.15625,2.60416667 C35.15625,1.16588542 33.9903646,0 32.5520833,0 C31.1138021,0 29.9479167,1.16588542 29.9479167,2.60416667 L29.9479167,15.625 C29.9479167,22.0270833 33.0433594,29.0576823 39.0625,30.8630208 L39.0625,64.0625 C39.0625,65.5007812 40.2283854,66.6666667 41.6666667,66.6666667 C43.1049479,66.6666667 44.2708333,65.5007812 44.2708333,64.0625 L44.2708333,30.8630208 C50.2884115,29.0580729 53.3854167,22.031901 53.3854167,15.625 L53.3854167,2.60416667 C53.3854167,1.16588542 52.2195312,0 50.78125,0 Z" id="Path"></path>
                    <path d="M11.71875,0 C5.68059896,0 0,6.30859375 0,15.625 C0,22.031901 3.09700521,29.0580729 9.11458333,30.8630208 L9.11458333,64.0625 C9.11458333,65.5007812 10.2804688,66.6666667 11.71875,66.6666667 C13.1570312,66.6666667 14.3229167,65.5007812 14.3229167,64.0625 L14.3229167,30.8630208 C20.3420573,29.0576823 23.4375,22.0270833 23.4375,15.625 C23.4375,6.03111979 17.5520833,0 11.71875,0 Z M11.71875,26.0416667 C8.18971354,26.0416667 5.20833333,21.2713542 5.20833333,15.625 C5.20833333,9.97864583 8.18971354,5.20833333 11.71875,5.20833333 C15.2477865,5.20833333 18.2291667,9.97864583 18.2291667,15.625 C18.2291667,21.2713542 15.2477865,26.0416667 11.71875,26.0416667 Z" id="Shape"></path>
                </g>
            </g>
        </g>
    </g>
</svg>