<?xml version="1.0" encoding="UTF-8"?>
<svg width="14px" height="14px" viewBox="0 0 14 14" version="1.1" xmlns="http://www.w3.org/2000/svg" xmlns:xlink="http://www.w3.org/1999/xlink">
    <!-- Generator: Sketch 60.1 (88133) - https://sketch.com -->
    <title>information-fill (1)</title>
    <desc>Created with Sketch.</desc>
    <g id="Page-1" stroke="none" stroke-width="1" fill="none" fill-rule="evenodd" opacity="0.15">
        <g id="restaurant-details" transform="translate(-21.000000, -441.000000)">
            <g id="Group-10" transform="translate(0.000000, 68.000000)">
                <g id="Group-12" transform="translate(0.000000, 258.000000)">
                    <g id="Group-6" transform="translate(20.000000, 111.000000)">
                        <g id="information-fill-(1)" transform="translate(0.000000, 3.000000)">
                            <polygon id="Path" points="0 0 16 0 16 16 0 16"></polygon>
                            <path d="M8,14.6666667 C4.318,14.6666667 1.33333333,11.682 1.33333333,8 C1.33333333,4.318 4.318,1.33333333 8,1.33333333 C11.682,1.33333333 14.6666667,4.318 14.6666667,8 C14.6666667,11.682 11.682,14.6666667 8,14.6666667 Z M7.33333333,7.33333333 L7.33333333,11.3333333 L8.66666667,11.3333333 L8.66666667,7.33333333 L7.33333333,7.33333333 Z M7.33333333,4.66666667 L7.33333333,6 L8.66666667,6 L8.66666667,4.66666667 L7.33333333,4.66666667 Z" id="Shape" fill="#000000" fill-rule="nonzero"></path>
                        </g>
                    </g>
                </g>
            </g>
        </g>
    </g>
</svg>