<?xml version="1.0" encoding="UTF-8"?>
<svg width="20px" height="20px" viewBox="0 0 20 20" version="1.1" xmlns="http://www.w3.org/2000/svg" xmlns:xlink="http://www.w3.org/1999/xlink">
    <!-- Generator: Sketch 60.1 (88133) - https://sketch.com -->
    <title>Group 9</title>
    <desc>Created with Sketch.</desc>
    <g id="Page-1" stroke="none" stroke-width="1" fill="none" fill-rule="evenodd">
        <g id="Artboard" transform="translate(-87.000000, -115.000000)">
            <g id="Group-8" transform="translate(67.000000, 85.000000)">
                <g id="Group-9" transform="translate(20.000000, 30.000000)">
                    <circle id="Oval" fill="#0AC775" cx="10" cy="10" r="10"></circle>
                    <g id="cutlery" transform="translate(5.555556, 4.444444)" fill="#FFFFFF" fill-rule="nonzero">
                        <path d="M6.94444444,2.95138889 C7.18415799,2.95138889 7.37847222,2.75707465 7.37847222,2.51736111 L7.37847222,0.434027778 C7.37847222,0.194314236 7.18415799,0 6.94444444,0 C6.7047309,0 6.51041667,0.194314236 6.51041667,0.434027778 L6.51041667,2.51736111 C6.51041667,2.75707465 6.7047309,2.95138889 6.94444444,2.95138889 Z" id="Path"></path>
                        <path d="M8.46354167,0 C8.22382813,0 8.02951389,0.194314236 8.02951389,0.434027778 L8.02951389,2.60416667 C8.02951389,3.54522569 7.53261719,4.34027778 6.94444444,4.34027778 C6.3562717,4.34027778 5.859375,3.54522569 5.859375,2.60416667 L5.859375,0.434027778 C5.859375,0.194314236 5.66506076,0 5.42534722,0 C5.18563368,0 4.99131944,0.194314236 4.99131944,0.434027778 L4.99131944,2.60416667 C4.99131944,3.67118056 5.50722656,4.84294705 6.51041667,5.14383681 L6.51041667,10.6770833 C6.51041667,10.9167969 6.7047309,11.1111111 6.94444444,11.1111111 C7.18415799,11.1111111 7.37847222,10.9167969 7.37847222,10.6770833 L7.37847222,5.14383681 C8.38140191,4.84301215 8.89756944,3.67198351 8.89756944,2.60416667 L8.89756944,0.434027778 C8.89756944,0.194314236 8.70325521,0 8.46354167,0 Z" id="Path"></path>
                        <path d="M1.953125,0 C0.946766493,0 0,1.05143229 0,2.60416667 C0,3.67198351 0.516167535,4.84301215 1.51909722,5.14383681 L1.51909722,10.6770833 C1.51909722,10.9167969 1.71341146,11.1111111 1.953125,11.1111111 C2.19283854,11.1111111 2.38715278,10.9167969 2.38715278,10.6770833 L2.38715278,5.14383681 C3.39034288,4.84294705 3.90625,3.67118056 3.90625,2.60416667 C3.90625,1.00518663 2.92534722,0 1.953125,0 Z M1.953125,4.34027778 C1.36495226,4.34027778 0.868055556,3.54522569 0.868055556,2.60416667 C0.868055556,1.66310764 1.36495226,0.868055556 1.953125,0.868055556 C2.54129774,0.868055556 3.03819444,1.66310764 3.03819444,2.60416667 C3.03819444,3.54522569 2.54129774,4.34027778 1.953125,4.34027778 Z" id="Shape"></path>
                    </g>
                </g>
            </g>
        </g>
    </g>
</svg>