<?xml version="1.0" encoding="UTF-8"?>
<svg width="60px" height="60px" viewBox="0 0 60 60" version="1.1" xmlns="http://www.w3.org/2000/svg" xmlns:xlink="http://www.w3.org/1999/xlink">
    <!-- Generator: Sketch 60.1 (88133) - https://sketch.com -->
    <title>Group 12</title>
    <desc>Created with Sketch.</desc>
    <defs>
        <circle id="path-1" cx="30" cy="30" r="30"></circle>
    </defs>
    <g id="Page-1" stroke="none" stroke-width="1" fill="none" fill-rule="evenodd">
        <g id="restaurant-list" transform="translate(-56.000000, -83.000000)">
            <g id="Group-10" transform="translate(-110.000000, -56.000000)">
                <g id="Rectangle-3">
                    <g id="Group-5">
                        <g id="Group-7" transform="translate(164.000000, 137.000000)">
                            <g id="Group-8">
                                <g id="Group-9">
                                    <g id="Group-16">
                                        <g id="Group-12" transform="translate(2.000000, 2.000000)">
                                            <mask id="mask-2" fill="white">
                                                <use xlink:href="#path-1"></use>
                                            </mask>
                                            <use id="Oval" fill="#FFFFFF" xlink:href="#path-1"></use>
                                            <g id="Group-15" mask="url(#mask-2)">
                                                <g transform="translate(11.000000, 20.000000)">
                                                    <g id="Group-11">
                                                        <path d="M18.8187326,74.9615616 L7.59065496,74.9615616 C3.39922327,74.9615616 -1.36091855e-13,71.5642908 -1.36091855e-13,67.3713947 L-1.36091855e-13,7.59065496 C-1.36091855e-13,3.39873516 3.39922327,2.04682149e-13 7.59065496,2.04682149e-13 L18.8187326,2.04682149e-13" id="Fill-464" fill="#000207"></path>
                                                        <path d="M18.8187326,2.04682149e-13 L30.3645723,2.04682149e-13 C34.5564921,2.04682149e-13 37.9557154,3.39873516 37.9557154,7.59065496 L37.9557154,67.3713947 C37.9557154,71.5642908 34.5564921,74.9615616 30.3645723,74.9615616 L18.8187326,74.9615616" id="Fill-465" fill="#00030D"></path>
                                                        <polygon id="Fill-466" fill="#FFFFFE" points="2.21359528 62.3106327 35.582995 62.3106327 35.582995 8.22325021 2.21359528 8.22325021"></polygon>
                                                        <path d="M33.9229206,5.21891086 C33.9229206,5.83002912 33.4269972,6.32546444 32.8153908,6.32546444 L6.08824122,6.32546444 C5.47663485,6.32546444 4.98119953,5.83002912 4.98119953,5.21891086 C4.98119953,4.6077926 5.47663485,4.11186916 6.08824122,4.11186916 L32.8153908,4.11186916 C33.4269972,4.11186916 33.9229206,4.6077926 33.9229206,5.21891086" id="Fill-468" fill="#1F222F"></path>
                                                    </g>
                                                    <g id="Group-10" transform="translate(4.700046, 16.102741)">
                                                        <polygon id="Fill-469" fill="#FFFFFE" points="24.4730408 25.5976546 25.5073536 25.5976546 25.5073536 2.82422542 24.4730408 2.82422542"></polygon>
                                                        <polygon id="Fill-471" fill="#000105" points="23.4392162 24.5613894 24.4730408 24.5613894 24.4730408 21.4550343 23.4392162 21.4550343"></polygon>
                                                        <polygon id="Fill-472" fill="#FFFFFE" points="23.4392162 21.4550343 24.4730408 21.4550343 24.4730408 20.4212097 23.4392162 20.4212097"></polygon>
                                                        <polygon id="Fill-473" fill="#000105" points="23.4392162 20.4212097 24.4730408 20.4212097 24.4730408 16.2810299 23.4392162 16.2810299"></polygon>
                                                        <polygon id="Fill-474" fill="#FFFFFE" points="23.4392162 16.2810299 24.4730408 16.2810299 24.4730408 15.2447647 23.4392162 15.2447647"></polygon>
                                                        <polygon id="Fill-475" fill="#000105" points="23.4392162 15.2447647 24.4730408 15.2447647 24.4730408 13.1746748 23.4392162 13.1746748"></polygon>
                                                        <polygon id="Fill-476" fill="#FFFFFE" points="23.4392162 13.1746748 24.4730408 13.1746748 24.4730408 12.1408502 23.4392162 12.1408502"></polygon>
                                                        <polygon id="Fill-477" fill="#000105" points="23.4392162 12.1408502 24.4730408 12.1408502 24.4730408 10.0683197 23.4392162 10.0683197"></polygon>
                                                        <polygon id="Fill-478" fill="#FFFFFE" points="23.4392162 10.0683197 24.4730408 10.0683197 24.4730408 9.03449505 23.4392162 9.03449505"></polygon>
                                                        <polygon id="Fill-479" fill="#000105" points="23.4392162 9.03449505 24.4730408 9.03449505 24.4730408 3.85805008 23.4392162 3.85805008"></polygon>
                                                        <polygon id="Fill-480" fill="#FFFFFE" points="23.4392162 3.85805008 24.4730408 3.85805008 24.4730408 2.82422542 23.4392162 2.82422542"></polygon>
                                                        <polygon id="Fill-481" fill="#FFFFFE" points="22.3980698 25.5976546 23.4392162 25.5976546 23.4392162 21.4550343 22.3980698 21.4550343"></polygon>
                                                        <polygon id="Fill-482" fill="#000105" points="22.3980698 21.4550343 23.4392162 21.4550343 23.4392162 20.4212097 22.3980698 20.4212097"></polygon>
                                                        <polygon id="Fill-483" fill="#FFFFFE" points="22.3980698 20.4212097 23.4392162 20.4212097 23.4392162 17.316807 22.3980698 17.316807"></polygon>
                                                        <polygon id="Fill-484" fill="#000105" points="22.3980698 17.316807 23.4392162 17.316807 23.4392162 16.2810299 22.3980698 16.2810299"></polygon>
                                                        <polygon id="Fill-485" fill="#FFFFFE" points="22.3980698 16.2810299 23.4392162 16.2810299 23.4392162 14.21094 22.3980698 14.21094"></polygon>
                                                        <polygon id="Fill-486" fill="#000105" points="22.3980698 14.21094 23.4392162 14.21094 23.4392162 13.1746748 22.3980698 13.1746748"></polygon>
                                                        <polygon id="Fill-487" fill="#FFFFFE" points="22.3980698 13.1746748 23.4392162 13.1746748 23.4392162 12.1408502 22.3980698 12.1408502"></polygon>
                                                        <polygon id="Fill-488" fill="#000105" points="22.3980698 12.1408502 23.4392162 12.1408502 23.4392162 11.1021444 22.3980698 11.1021444"></polygon>
                                                        <polygon id="Fill-489" fill="#FFFFFE" points="22.3980698 11.1021444 23.4392162 11.1021444 23.4392162 9.03449505 22.3980698 9.03449505"></polygon>
                                                        <polygon id="Fill-490" fill="#000105" points="22.3980698 9.03449505 23.4392162 9.03449505 23.4392162 7.99822983 22.3980698 7.99822983"></polygon>
                                                        <polygon id="Fill-491" fill="#FFFFFE" points="22.3980698 7.99822983 23.4392162 7.99822983 23.4392162 4.8943153 22.3980698 4.8943153"></polygon>
                                                        <polygon id="Fill-492" fill="#000105" points="22.3980698 4.8943153 23.4392162 4.8943153 23.4392162 3.85805008 22.3980698 3.85805008"></polygon>
                                                        <polygon id="Fill-493" fill="#FFFFFE" points="22.3980698 3.85805008 23.4392162 3.85805008 23.4392162 2.82422542 22.3980698 2.82422542"></polygon>
                                                        <polygon id="Fill-495" fill="#000105" points="21.3642452 24.5613894 22.3980698 24.5613894 22.3980698 23.5275648 21.3642452 23.5275648"></polygon>
                                                        <polygon id="Fill-496" fill="#FFFFFE" points="21.3642452 23.5275648 22.3980698 23.5275648 22.3980698 22.488859 21.3642452 22.488859"></polygon>
                                                        <polygon id="Fill-497" fill="#000105" points="21.3642452 22.488859 22.3980698 22.488859 22.3980698 21.4550343 21.3642452 21.4550343"></polygon>
                                                        <polygon id="Fill-498" fill="#FFFFFE" points="21.3642452 21.4550343 22.3980698 21.4550343 22.3980698 20.4212097 21.3642452 20.4212097"></polygon>
                                                        <polygon id="Fill-499" fill="#000105" points="21.3642452 20.4212097 22.3980698 20.4212097 22.3980698 19.3849444 21.3642452 19.3849444"></polygon>
                                                        <polygon id="Fill-500" fill="#FFFFFE" points="21.3642452 19.3849444 22.3980698 19.3849444 22.3980698 17.316807 21.3642452 17.316807"></polygon>
                                                        <polygon id="Fill-501" fill="#000105" points="21.3642452 17.316807 22.3980698 17.316807 22.3980698 11.1021444 21.3642452 11.1021444"></polygon>
                                                        <polygon id="Fill-502" fill="#FFFFFE" points="21.3642452 11.1021444 22.3980698 11.1021444 22.3980698 9.03449505 21.3642452 9.03449505"></polygon>
                                                        <polygon id="Fill-503" fill="#000105" points="21.3642452 9.03449505 22.3980698 9.03449505 22.3980698 7.99822983 21.3642452 7.99822983"></polygon>
                                                        <polygon id="Fill-504" fill="#FFFFFE" points="21.3642452 7.99822983 22.3980698 7.99822983 22.3980698 6.96635763 21.3642452 6.96635763"></polygon>
                                                        <polygon id="Fill-505" fill="#000105" points="21.3642452 6.96635763 22.3980698 6.96635763 22.3980698 5.93009241 21.3642452 5.93009241"></polygon>
                                                        <polygon id="Fill-506" fill="#FFFFFE" points="21.3642452 5.93009241 22.3980698 5.93009241 22.3980698 4.8943153 21.3642452 4.8943153"></polygon>
                                                        <polygon id="Fill-507" fill="#000105" points="21.3642452 4.8943153 22.3980698 4.8943153 22.3980698 3.85805008 21.3642452 3.85805008"></polygon>
                                                        <polygon id="Fill-508" fill="#FFFFFE" points="21.3642452 3.85805008 22.3980698 3.85805008 22.3980698 2.82422542 21.3642452 2.82422542"></polygon>
                                                        <polygon id="Fill-510" fill="#000105" points="20.3304205 24.5613894 21.3642452 24.5613894 21.3642452 23.5275648 20.3304205 23.5275648"></polygon>
                                                        <polygon id="Fill-511" fill="#FFFFFE" points="20.3304205 23.5275648 21.3642452 23.5275648 21.3642452 12.1408502 20.3304205 12.1408502"></polygon>
                                                        <polygon id="Fill-512" fill="#000105" points="20.3304205 12.1408502 21.3642452 12.1408502 21.3642452 11.1021444 20.3304205 11.1021444"></polygon>
                                                        <polygon id="Fill-513" fill="#FFFFFE" points="20.3304205 11.1021444 21.3642452 11.1021444 21.3642452 9.03449505 20.3304205 9.03449505"></polygon>
                                                        <polygon id="Fill-514" fill="#000105" points="20.3304205 9.03449505 21.3642452 9.03449505 21.3642452 7.99822983 20.3304205 7.99822983"></polygon>
                                                        <polygon id="Fill-515" fill="#FFFFFE" points="20.3304205 7.99822983 21.3642452 7.99822983 21.3642452 4.8943153 20.3304205 4.8943153"></polygon>
                                                        <polygon id="Fill-516" fill="#000105" points="20.3304205 4.8943153 21.3642452 4.8943153 21.3642452 3.85805008 20.3304205 3.85805008"></polygon>
                                                        <polygon id="Fill-517" fill="#FFFFFE" points="20.3304205 3.85805008 21.3642452 3.85805008 21.3642452 2.82422542 20.3304205 2.82422542"></polygon>
                                                        <polygon id="Fill-519" fill="#000105" points="19.2965959 24.5613894 20.3304205 24.5613894 20.3304205 23.5275648 19.2965959 23.5275648"></polygon>
                                                        <polygon id="Fill-520" fill="#FFFFFE" points="19.2965959 23.5275648 20.3304205 23.5275648 20.3304205 22.488859 19.2965959 22.488859"></polygon>
                                                        <polygon id="Fill-521" fill="#000105" points="19.2965959 22.488859 20.3304205 22.488859 20.3304205 21.4550343 19.2965959 21.4550343"></polygon>
                                                        <polygon id="Fill-522" fill="#FFFFFE" points="19.2965959 21.4550343 20.3304205 21.4550343 20.3304205 15.2447647 19.2965959 15.2447647"></polygon>
                                                        <polygon id="Fill-523" fill="#000105" points="19.2965959 15.2447647 20.3304205 15.2447647 20.3304205 13.1746748 19.2965959 13.1746748"></polygon>
                                                        <polygon id="Fill-524" fill="#FFFFFE" points="19.2965959 13.1746748 20.3304205 13.1746748 20.3304205 12.1408502 19.2965959 12.1408502"></polygon>
                                                        <polygon id="Fill-525" fill="#000105" points="19.2965959 12.1408502 20.3304205 12.1408502 20.3304205 10.0683197 19.2965959 10.0683197"></polygon>
                                                        <polygon id="Fill-526" fill="#FFFFFE" points="19.2965959 10.0683197 20.3304205 10.0683197 20.3304205 9.03449505 19.2965959 9.03449505"></polygon>
                                                        <polygon id="Fill-527" fill="#000105" points="19.2965959 9.03449505 20.3304205 9.03449505 20.3304205 3.85805008 19.2965959 3.85805008"></polygon>
                                                        <polygon id="Fill-528" fill="#FFFFFE" points="19.2965959 3.85805008 20.3304205 3.85805008 20.3304205 2.82422542 19.2965959 2.82422542"></polygon>
                                                        <polygon id="Fill-530" fill="#000105" points="18.2627712 24.5613894 19.2965959 24.5613894 19.2965959 23.5275648 18.2627712 23.5275648"></polygon>
                                                        <polygon id="Fill-531" fill="#FFFFFE" points="18.2627712 23.5275648 19.2965959 23.5275648 19.2965959 22.488859 18.2627712 22.488859"></polygon>
                                                        <polygon id="Fill-532" fill="#000105" points="18.2627712 22.488859 19.2965959 22.488859 19.2965959 21.4550343 18.2627712 21.4550343"></polygon>
                                                        <polygon id="Fill-533" fill="#FFFFFE" points="18.2627712 21.4550343 19.2965959 21.4550343 19.2965959 19.3849444 18.2627712 19.3849444"></polygon>
                                                        <polygon id="Fill-534" fill="#000105" points="18.2627712 19.3849444 19.2965959 19.3849444 19.2965959 17.316807 18.2627712 17.316807"></polygon>
                                                        <polygon id="Fill-535" fill="#FFFFFE" points="18.2627712 17.316807 19.2965959 17.316807 19.2965959 15.2447647 18.2627712 15.2447647"></polygon>
                                                        <polygon id="Fill-536" fill="#000105" points="18.2627712 15.2447647 19.2965959 15.2447647 19.2965959 14.21094 18.2627712 14.21094"></polygon>
                                                        <polygon id="Fill-537" fill="#FFFFFE" points="18.2627712 14.21094 19.2965959 14.21094 19.2965959 2.82422542 18.2627712 2.82422542"></polygon>
                                                        <polygon id="Fill-539" fill="#000105" points="17.2289466 24.5613894 18.2627712 24.5613894 18.2627712 23.5275648 17.2289466 23.5275648"></polygon>
                                                        <polygon id="Fill-540" fill="#FFFFFE" points="17.2289466 23.5275648 18.2627712 23.5275648 18.2627712 22.488859 17.2289466 22.488859"></polygon>
                                                        <polygon id="Fill-541" fill="#000105" points="17.2289466 22.488859 18.2627712 22.488859 18.2627712 21.4550343 17.2289466 21.4550343"></polygon>
                                                        <polygon id="Fill-542" fill="#FFFFFE" points="17.2289466 21.4550343 18.2627712 21.4550343 18.2627712 20.4212097 17.2289466 20.4212097"></polygon>
                                                        <polygon id="Fill-543" fill="#000105" points="17.2289466 20.4212097 18.2627712 20.4212097 18.2627712 16.2810299 17.2289466 16.2810299"></polygon>
                                                        <polygon id="Fill-544" fill="#FFFFFE" points="17.2289466 16.2810299 18.2627712 16.2810299 18.2627712 15.2447647 17.2289466 15.2447647"></polygon>
                                                        <polygon id="Fill-545" fill="#000105" points="17.2289466 15.2447647 18.2627712 15.2447647 18.2627712 13.1746748 17.2289466 13.1746748"></polygon>
                                                        <polygon id="Fill-546" fill="#FFFFFE" points="17.2289466 13.1746748 18.2627712 13.1746748 18.2627712 11.1021444 17.2289466 11.1021444"></polygon>
                                                        <polygon id="Fill-547" fill="#000105" points="17.2289466 11.1021444 18.2627712 11.1021444 18.2627712 10.0683197 17.2289466 10.0683197"></polygon>
                                                        <polygon id="Fill-548" fill="#FFFFFE" points="17.2289466 10.0683197 18.2627712 10.0683197 18.2627712 7.99822983 17.2289466 7.99822983"></polygon>
                                                        <polygon id="Fill-549" fill="#000105" points="17.2289466 7.99822983 18.2627712 7.99822983 18.2627712 6.96635763 17.2289466 6.96635763"></polygon>
                                                        <polygon id="Fill-550" fill="#FFFFFE" points="17.2289466 6.96635763 18.2627712 6.96635763 18.2627712 4.8943153 17.2289466 4.8943153"></polygon>
                                                        <polygon id="Fill-551" fill="#000105" points="17.2289466 4.8943153 18.2627712 4.8943153 18.2627712 3.85805008 17.2289466 3.85805008"></polygon>
                                                        <polygon id="Fill-552" fill="#FFFFFE" points="17.2289466 3.85805008 18.2627712 3.85805008 18.2627712 2.82422542 17.2289466 2.82422542"></polygon>
                                                        <polygon id="Fill-553" fill="#FFFFFE" points="16.1882883 25.5976546 17.2289466 25.5976546 17.2289466 22.488859 16.1882883 22.488859"></polygon>
                                                        <polygon id="Fill-554" fill="#000105" points="16.1882883 22.488859 17.2289466 22.488859 17.2289466 21.4550343 16.1882883 21.4550343"></polygon>
                                                        <polygon id="Fill-555" fill="#FFFFFE" points="16.1882883 21.4550343 17.2289466 21.4550343 17.2289466 20.4212097 16.1882883 20.4212097"></polygon>
                                                        <polygon id="Fill-556" fill="#000105" points="16.1882883 20.4212097 17.2289466 20.4212097 17.2289466 19.3849444 16.1882883 19.3849444"></polygon>
                                                        <polygon id="Fill-557" fill="#FFFFFE" points="16.1882883 19.3849444 17.2289466 19.3849444 17.2289466 17.316807 16.1882883 17.316807"></polygon>
                                                        <polygon id="Fill-558" fill="#000105" points="16.1882883 17.316807 17.2289466 17.316807 17.2289466 16.2810299 16.1882883 16.2810299"></polygon>
                                                        <polygon id="Fill-559" fill="#FFFFFE" points="16.1882883 16.2810299 17.2289466 16.2810299 17.2289466 11.1021444 16.1882883 11.1021444"></polygon>
                                                        <polygon id="Fill-560" fill="#000105" points="16.1882883 11.1021444 17.2289466 11.1021444 17.2289466 9.03449505 16.1882883 9.03449505"></polygon>
                                                        <polygon id="Fill-561" fill="#FFFFFE" points="16.1882883 9.03449505 17.2289466 9.03449505 17.2289466 6.96635763 16.1882883 6.96635763"></polygon>
                                                        <polygon id="Fill-562" fill="#000105" points="16.1882883 6.96635763 17.2289466 6.96635763 17.2289466 3.85805008 16.1882883 3.85805008"></polygon>
                                                        <polygon id="Fill-563" fill="#FFFFFE" points="16.1882883 3.85805008 17.2289466 3.85805008 17.2289466 2.82422542 16.1882883 2.82422542"></polygon>
                                                        <polygon id="Fill-565" fill="#000105" points="15.1544637 24.5613894 16.1882883 24.5613894 16.1882883 23.5275648 15.1544637 23.5275648"></polygon>
                                                        <polygon id="Fill-566" fill="#FFFFFE" points="15.1544637 23.5275648 16.1882883 23.5275648 16.1882883 19.3849444 15.1544637 19.3849444"></polygon>
                                                        <polygon id="Fill-567" fill="#000105" points="15.1544637 19.3849444 16.1882883 19.3849444 16.1882883 18.3530722 15.1544637 18.3530722"></polygon>
                                                        <polygon id="Fill-568" fill="#FFFFFE" points="15.1544637 18.3530722 16.1882883 18.3530722 16.1882883 16.2810299 15.1544637 16.2810299"></polygon>
                                                        <polygon id="Fill-569" fill="#000105" points="15.1544637 16.2810299 16.1882883 16.2810299 16.1882883 12.1408502 15.1544637 12.1408502"></polygon>
                                                        <polygon id="Fill-570" fill="#FFFFFE" points="15.1544637 12.1408502 16.1882883 12.1408502 16.1882883 11.1021444 15.1544637 11.1021444"></polygon>
                                                        <polygon id="Fill-571" fill="#000105" points="15.1544637 11.1021444 16.1882883 11.1021444 16.1882883 10.0683197 15.1544637 10.0683197"></polygon>
                                                        <polygon id="Fill-572" fill="#FFFFFE" points="15.1544637 10.0683197 16.1882883 10.0683197 16.1882883 9.03449505 15.1544637 9.03449505"></polygon>
                                                        <polygon id="Fill-573" fill="#000105" points="15.1544637 9.03449505 16.1882883 9.03449505 16.1882883 7.99822983 15.1544637 7.99822983"></polygon>
                                                        <polygon id="Fill-574" fill="#FFFFFE" points="15.1544637 7.99822983 16.1882883 7.99822983 16.1882883 6.96635763 15.1544637 6.96635763"></polygon>
                                                        <polygon id="Fill-575" fill="#000105" points="15.1544637 6.96635763 16.1882883 6.96635763 16.1882883 5.93009241 15.1544637 5.93009241"></polygon>
                                                        <polygon id="Fill-576" fill="#FFFFFE" points="15.1544637 5.93009241 16.1882883 5.93009241 16.1882883 4.8943153 15.1544637 4.8943153"></polygon>
                                                        <polygon id="Fill-577" fill="#000105" points="15.1544637 4.8943153 16.1882883 4.8943153 16.1882883 3.85805008 15.1544637 3.85805008"></polygon>
                                                        <polygon id="Fill-578" fill="#FFFFFE" points="15.1544637 3.85805008 16.1882883 3.85805008 16.1882883 2.82422542 15.1544637 2.82422542"></polygon>
                                                        <polygon id="Fill-579" fill="#FFFFFE" points="14.1201509 25.5976546 15.1544637 25.5976546 15.1544637 23.5275648 14.1201509 23.5275648"></polygon>
                                                        <polygon id="Fill-580" fill="#000105" points="14.1201509 23.5275648 15.1544637 23.5275648 15.1544637 18.3530722 14.1201509 18.3530722"></polygon>
                                                        <polygon id="Fill-581" fill="#FFFFFE" points="14.1201509 18.3530722 15.1544637 18.3530722 15.1544637 4.8943153 14.1201509 4.8943153"></polygon>
                                                        <polygon id="Fill-582" fill="#000105" points="14.1201509 4.8943153 15.1544637 4.8943153 15.1544637 3.85805008 14.1201509 3.85805008"></polygon>
                                                        <polygon id="Fill-583" fill="#FFFFFE" points="14.1201509 3.85805008 15.1544637 3.85805008 15.1544637 2.82422542 14.1201509 2.82422542"></polygon>
                                                        <polygon id="Fill-585" fill="#000105" points="13.0863262 24.5613894 14.1201509 24.5613894 14.1201509 23.5275648 13.0863262 23.5275648"></polygon>
                                                        <polygon id="Fill-586" fill="#FFFFFE" points="13.0863262 23.5275648 14.1201509 23.5275648 14.1201509 13.1746748 13.0863262 13.1746748"></polygon>
                                                        <polygon id="Fill-587" fill="#000105" points="13.0863262 13.1746748 14.1201509 13.1746748 14.1201509 12.1408502 13.0863262 12.1408502"></polygon>
                                                        <polygon id="Fill-588" fill="#FFFFFE" points="13.0863262 12.1408502 14.1201509 12.1408502 14.1201509 10.0683197 13.0863262 10.0683197"></polygon>
                                                        <polygon id="Fill-589" fill="#000105" points="13.0863262 10.0683197 14.1201509 10.0683197 14.1201509 7.99822983 13.0863262 7.99822983"></polygon>
                                                        <polygon id="Fill-590" fill="#FFFFFE" points="13.0863262 7.99822983 14.1201509 7.99822983 14.1201509 5.93009241 13.0863262 5.93009241"></polygon>
                                                        <polygon id="Fill-591" fill="#000105" points="13.0863262 5.93009241 14.1201509 5.93009241 14.1201509 4.8943153 13.0863262 4.8943153"></polygon>
                                                        <polygon id="Fill-592" fill="#FFFFFE" points="13.0863262 4.8943153 14.1201509 4.8943153 14.1201509 2.82422542 13.0863262 2.82422542"></polygon>
                                                        <polygon id="Fill-594" fill="#000105" points="12.0525016 24.5613894 13.0863262 24.5613894 13.0863262 23.5275648 12.0525016 23.5275648"></polygon>
                                                        <polygon id="Fill-595" fill="#FFFFFE" points="12.0525016 23.5275648 13.0863262 23.5275648 13.0863262 20.4212097 12.0525016 20.4212097"></polygon>
                                                        <polygon id="Fill-596" fill="#000105" points="12.0525016 20.4212097 13.0863262 20.4212097 13.0863262 19.3849444 12.0525016 19.3849444"></polygon>
                                                        <polygon id="Fill-597" fill="#FFFFFE" points="12.0525016 19.3849444 13.0863262 19.3849444 13.0863262 16.2810299 12.0525016 16.2810299"></polygon>
                                                        <polygon id="Fill-598" fill="#000105" points="12.0525016 16.2810299 13.0863262 16.2810299 13.0863262 15.2447647 12.0525016 15.2447647"></polygon>
                                                        <polygon id="Fill-599" fill="#FFFFFE" points="12.0525016 15.2447647 13.0863262 15.2447647 13.0863262 14.21094 12.0525016 14.21094"></polygon>
                                                        <polygon id="Fill-600" fill="#000105" points="12.0525016 14.21094 13.0863262 14.21094 13.0863262 13.1746748 12.0525016 13.1746748"></polygon>
                                                        <polygon id="Fill-601" fill="#FFFFFE" points="12.0525016 13.1746748 13.0863262 13.1746748 13.0863262 11.1021444 12.0525016 11.1021444"></polygon>
                                                        <polygon id="Fill-602" fill="#000105" points="12.0525016 11.1021444 13.0863262 11.1021444 13.0863262 3.85805008 12.0525016 3.85805008"></polygon>
                                                        <polygon id="Fill-603" fill="#FFFFFE" points="12.0525016 3.85805008 13.0863262 3.85805008 13.0863262 2.82422542 12.0525016 2.82422542"></polygon>
                                                        <polygon id="Fill-604" fill="#FFFFFE" points="11.0113552 25.5976546 12.0525016 25.5976546 12.0525016 20.4212097 11.0113552 20.4212097"></polygon>
                                                        <polygon id="Fill-605" fill="#000105" points="11.0113552 20.4212097 12.0525016 20.4212097 12.0525016 16.2810299 11.0113552 16.2810299"></polygon>
                                                        <polygon id="Fill-606" fill="#FFFFFE" points="11.0113552 16.2810299 12.0525016 16.2810299 12.0525016 15.2447647 11.0113552 15.2447647"></polygon>
                                                        <polygon id="Fill-607" fill="#000105" points="11.0113552 15.2447647 12.0525016 15.2447647 12.0525016 12.1408502 11.0113552 12.1408502"></polygon>
                                                        <polygon id="Fill-608" fill="#FFFFFE" points="11.0113552 12.1408502 12.0525016 12.1408502 12.0525016 11.1021444 11.0113552 11.1021444"></polygon>
                                                        <polygon id="Fill-609" fill="#000105" points="11.0113552 11.1021444 12.0525016 11.1021444 12.0525016 10.0683197 11.0113552 10.0683197"></polygon>
                                                        <polygon id="Fill-610" fill="#FFFFFE" points="11.0113552 10.0683197 12.0525016 10.0683197 12.0525016 9.03449505 11.0113552 9.03449505"></polygon>
                                                        <polygon id="Fill-611" fill="#000105" points="11.0113552 9.03449505 12.0525016 9.03449505 12.0525016 7.99822983 11.0113552 7.99822983"></polygon>
                                                        <polygon id="Fill-612" fill="#FFFFFE" points="11.0113552 7.99822983 12.0525016 7.99822983 12.0525016 5.93009241 11.0113552 5.93009241"></polygon>
                                                        <polygon id="Fill-613" fill="#000105" points="11.0113552 5.93009241 12.0525016 5.93009241 12.0525016 4.8943153 11.0113552 4.8943153"></polygon>
                                                        <polygon id="Fill-614" fill="#FFFFFE" points="11.0113552 4.8943153 12.0525016 4.8943153 12.0525016 2.82422542 11.0113552 2.82422542"></polygon>
                                                        <polygon id="Fill-616" fill="#000105" points="9.97753057 24.5613894 11.0113552 24.5613894 11.0113552 19.3849444 9.97753057 19.3849444"></polygon>
                                                        <polygon id="Fill-617" fill="#FFFFFE" points="9.97753057 19.3849444 11.0113552 19.3849444 11.0113552 11.1021444 9.97753057 11.1021444"></polygon>
                                                        <polygon id="Fill-618" fill="#000105" points="9.97753057 11.1021444 11.0113552 11.1021444 11.0113552 10.0683197 9.97753057 10.0683197"></polygon>
                                                        <polygon id="Fill-619" fill="#FFFFFE" points="9.97753057 10.0683197 11.0113552 10.0683197 11.0113552 7.99822983 9.97753057 7.99822983"></polygon>
                                                        <polygon id="Fill-620" fill="#000105" points="9.97753057 7.99822983 11.0113552 7.99822983 11.0113552 6.96635763 9.97753057 6.96635763"></polygon>
                                                        <polygon id="Fill-621" fill="#FFFFFE" points="9.97753057 6.96635763 11.0113552 6.96635763 11.0113552 5.93009241 9.97753057 5.93009241"></polygon>
                                                        <polygon id="Fill-622" fill="#000105" points="9.97753057 5.93009241 11.0113552 5.93009241 11.0113552 4.8943153 9.97753057 4.8943153"></polygon>
                                                        <polygon id="Fill-623" fill="#FFFFFE" points="9.97753057 4.8943153 11.0113552 4.8943153 11.0113552 2.82422542 9.97753057 2.82422542"></polygon>
                                                        <polygon id="Fill-624" fill="#FFFFFE" points="8.94370592 25.5976546 9.97753057 25.5976546 9.97753057 18.3530722 8.94370592 18.3530722"></polygon>
                                                        <polygon id="Fill-625" fill="#000105" points="8.94370592 18.3530722 9.97753057 18.3530722 9.97753057 15.2447647 8.94370592 15.2447647"></polygon>
                                                        <polygon id="Fill-626" fill="#FFFFFE" points="8.94370592 15.2447647 9.97753057 15.2447647 9.97753057 13.1746748 8.94370592 13.1746748"></polygon>
                                                        <polygon id="Fill-627" fill="#000105" points="8.94370592 13.1746748 9.97753057 13.1746748 9.97753057 10.0683197 8.94370592 10.0683197"></polygon>
                                                        <polygon id="Fill-628" fill="#FFFFFE" points="8.94370592 10.0683197 9.97753057 10.0683197 9.97753057 2.82422542 8.94370592 2.82422542"></polygon>
                                                        <polygon id="Fill-630" fill="#000105" points="7.90988127 24.5613894 8.94370592 24.5613894 8.94370592 19.3849444 7.90988127 19.3849444"></polygon>
                                                        <polygon id="Fill-631" fill="#FFFFFE" points="7.90988127 19.3849444 8.94370592 19.3849444 8.94370592 16.2810299 7.90988127 16.2810299"></polygon>
                                                        <polygon id="Fill-632" fill="#000105" points="7.90988127 16.2810299 8.94370592 16.2810299 8.94370592 15.2447647 7.90988127 15.2447647"></polygon>
                                                        <polygon id="Fill-633" fill="#FFFFFE" points="7.90988127 15.2447647 8.94370592 15.2447647 8.94370592 11.1021444 7.90988127 11.1021444"></polygon>
                                                        <polygon id="Fill-634" fill="#000105" points="7.90988127 11.1021444 8.94370592 11.1021444 8.94370592 10.0683197 7.90988127 10.0683197"></polygon>
                                                        <polygon id="Fill-635" fill="#FFFFFE" points="7.90988127 10.0683197 8.94370592 10.0683197 8.94370592 9.03449505 7.90988127 9.03449505"></polygon>
                                                        <polygon id="Fill-636" fill="#000105" points="7.90988127 9.03449505 8.94370592 9.03449505 8.94370592 3.85805008 7.90988127 3.85805008"></polygon>
                                                        <polygon id="Fill-637" fill="#FFFFFE" points="7.90988127 3.85805008 8.94370592 3.85805008 8.94370592 2.82422542 7.90988127 2.82422542"></polygon>
                                                        <polygon id="Fill-639" fill="#000105" points="6.87605661 24.5613894 7.90988127 24.5613894 7.90988127 23.5275648 6.87605661 23.5275648"></polygon>
                                                        <polygon id="Fill-640" fill="#FFFFFE" points="6.87605661 23.5275648 7.90988127 23.5275648 7.90988127 20.4212097 6.87605661 20.4212097"></polygon>
                                                        <polygon id="Fill-641" fill="#000105" points="6.87605661 20.4212097 7.90988127 20.4212097 7.90988127 19.3849444 6.87605661 19.3849444"></polygon>
                                                        <polygon id="Fill-642" fill="#FFFFFE" points="6.87605661 19.3849444 7.90988127 19.3849444 7.90988127 16.2810299 6.87605661 16.2810299"></polygon>
                                                        <polygon id="Fill-643" fill="#000105" points="6.87605661 16.2810299 7.90988127 16.2810299 7.90988127 15.2447647 6.87605661 15.2447647"></polygon>
                                                        <polygon id="Fill-644" fill="#FFFFFE" points="6.87605661 15.2447647 7.90988127 15.2447647 7.90988127 14.21094 6.87605661 14.21094"></polygon>
                                                        <polygon id="Fill-645" fill="#000105" points="6.87605661 14.21094 7.90988127 14.21094 7.90988127 13.1746748 6.87605661 13.1746748"></polygon>
                                                        <polygon id="Fill-646" fill="#FFFFFE" points="6.87605661 13.1746748 7.90988127 13.1746748 7.90988127 11.1021444 6.87605661 11.1021444"></polygon>
                                                        <polygon id="Fill-647" fill="#000105" points="6.87605661 11.1021444 7.90988127 11.1021444 7.90988127 10.0683197 6.87605661 10.0683197"></polygon>
                                                        <polygon id="Fill-648" fill="#FFFFFE" points="6.87605661 10.0683197 7.90988127 10.0683197 7.90988127 9.03449505 6.87605661 9.03449505"></polygon>
                                                        <polygon id="Fill-649" fill="#000105" points="6.87605661 9.03449505 7.90988127 9.03449505 7.90988127 7.99822983 6.87605661 7.99822983"></polygon>
                                                        <polygon id="Fill-650" fill="#FFFFFE" points="6.87605661 7.99822983 7.90988127 7.99822983 7.90988127 4.8943153 6.87605661 4.8943153"></polygon>
                                                        <polygon id="Fill-651" fill="#000105" points="6.87605661 4.8943153 7.90988127 4.8943153 7.90988127 3.85805008 6.87605661 3.85805008"></polygon>
                                                        <polygon id="Fill-652" fill="#FFFFFE" points="6.87605661 3.85805008 7.90988127 3.85805008 7.90988127 2.82422542 6.87605661 2.82422542"></polygon>
                                                        <polygon id="Fill-654" fill="#000105" points="5.84174384 24.5613894 6.87605661 24.5613894 6.87605661 23.5275648 5.84174384 23.5275648"></polygon>
                                                        <polygon id="Fill-655" fill="#FFFFFE" points="5.84174384 23.5275648 6.87605661 23.5275648 6.87605661 22.488859 5.84174384 22.488859"></polygon>
                                                        <polygon id="Fill-656" fill="#000105" points="5.84174384 22.488859 6.87605661 22.488859 6.87605661 21.4550343 5.84174384 21.4550343"></polygon>
                                                        <polygon id="Fill-657" fill="#FFFFFE" points="5.84174384 21.4550343 6.87605661 21.4550343 6.87605661 20.4212097 5.84174384 20.4212097"></polygon>
                                                        <polygon id="Fill-658" fill="#000105" points="5.84174384 20.4212097 6.87605661 20.4212097 6.87605661 19.3849444 5.84174384 19.3849444"></polygon>
                                                        <polygon id="Fill-659" fill="#FFFFFE" points="5.84174384 19.3849444 6.87605661 19.3849444 6.87605661 18.3530722 5.84174384 18.3530722"></polygon>
                                                        <polygon id="Fill-660" fill="#000105" points="5.84174384 18.3530722 6.87605661 18.3530722 6.87605661 17.316807 5.84174384 17.316807"></polygon>
                                                        <polygon id="Fill-661" fill="#FFFFFE" points="5.84174384 17.316807 6.87605661 17.316807 6.87605661 16.2810299 5.84174384 16.2810299"></polygon>
                                                        <polygon id="Fill-662" fill="#000105" points="5.84174384 16.2810299 6.87605661 16.2810299 6.87605661 15.2447647 5.84174384 15.2447647"></polygon>
                                                        <polygon id="Fill-663" fill="#FFFFFE" points="5.84174384 15.2447647 6.87605661 15.2447647 6.87605661 14.21094 5.84174384 14.21094"></polygon>
                                                        <polygon id="Fill-664" fill="#000105" points="5.84174384 14.21094 6.87605661 14.21094 6.87605661 13.1746748 5.84174384 13.1746748"></polygon>
                                                        <polygon id="Fill-665" fill="#FFFFFE" points="5.84174384 13.1746748 6.87605661 13.1746748 6.87605661 9.03449505 5.84174384 9.03449505"></polygon>
                                                        <polygon id="Fill-666" fill="#000105" points="5.84174384 9.03449505 6.87605661 9.03449505 6.87605661 7.99822983 5.84174384 7.99822983"></polygon>
                                                        <polygon id="Fill-667" fill="#FFFFFE" points="5.84174384 7.99822983 6.87605661 7.99822983 6.87605661 6.96635763 5.84174384 6.96635763"></polygon>
                                                        <polygon id="Fill-668" fill="#000105" points="5.84174384 6.96635763 6.87605661 6.96635763 6.87605661 5.93009241 5.84174384 5.93009241"></polygon>
                                                        <polygon id="Fill-669" fill="#FFFFFE" points="5.84174384 5.93009241 6.87605661 5.93009241 6.87605661 4.8943153 5.84174384 4.8943153"></polygon>
                                                        <polygon id="Fill-670" fill="#000105" points="5.84174384 4.8943153 6.87605661 4.8943153 6.87605661 3.85805008 5.84174384 3.85805008"></polygon>
                                                        <polygon id="Fill-671" fill="#FFFFFE" points="5.84174384 3.85805008 6.87605661 3.85805008 6.87605661 2.82422542 5.84174384 2.82422542"></polygon>
                                                        <polygon id="Fill-673" fill="#000105" points="4.80157371 24.5613894 5.84174384 24.5613894 5.84174384 23.5275648 4.80157371 23.5275648"></polygon>
                                                        <polygon id="Fill-674" fill="#FFFFFE" points="4.80157371 23.5275648 5.84174384 23.5275648 5.84174384 20.4212097 4.80157371 20.4212097"></polygon>
                                                        <polygon id="Fill-675" fill="#000105" points="4.80157371 20.4212097 5.84174384 20.4212097 5.84174384 19.3849444 4.80157371 19.3849444"></polygon>
                                                        <polygon id="Fill-676" fill="#FFFFFE" points="4.80157371 19.3849444 5.84174384 19.3849444 5.84174384 17.316807 4.80157371 17.316807"></polygon>
                                                        <polygon id="Fill-677" fill="#000105" points="4.80157371 17.316807 5.84174384 17.316807 5.84174384 15.2447647 4.80157371 15.2447647"></polygon>
                                                        <polygon id="Fill-678" fill="#FFFFFE" points="4.80157371 15.2447647 5.84174384 15.2447647 5.84174384 14.21094 4.80157371 14.21094"></polygon>
                                                        <polygon id="Fill-679" fill="#000105" points="4.80157371 14.21094 5.84174384 14.21094 5.84174384 13.1746748 4.80157371 13.1746748"></polygon>
                                                        <polygon id="Fill-680" fill="#FFFFFE" points="4.80157371 13.1746748 5.84174384 13.1746748 5.84174384 12.1408502 4.80157371 12.1408502"></polygon>
                                                        <polygon id="Fill-681" fill="#000105" points="4.80157371 12.1408502 5.84174384 12.1408502 5.84174384 10.0683197 4.80157371 10.0683197"></polygon>
                                                        <polygon id="Fill-682" fill="#FFFFFE" points="4.80157371 10.0683197 5.84174384 10.0683197 5.84174384 9.03449505 4.80157371 9.03449505"></polygon>
                                                        <polygon id="Fill-683" fill="#000105" points="4.80157371 9.03449505 5.84174384 9.03449505 5.84174384 7.99822983 4.80157371 7.99822983"></polygon>
                                                        <polygon id="Fill-684" fill="#FFFFFE" points="4.80157371 7.99822983 5.84174384 7.99822983 5.84174384 4.8943153 4.80157371 4.8943153"></polygon>
                                                        <polygon id="Fill-685" fill="#000105" points="4.80157371 4.8943153 5.84174384 4.8943153 5.84174384 3.85805008 4.80157371 3.85805008"></polygon>
                                                        <polygon id="Fill-686" fill="#FFFFFE" points="4.80157371 3.85805008 5.84174384 3.85805008 5.84174384 2.82422542 4.80157371 2.82422542"></polygon>
                                                        <polygon id="Fill-688" fill="#000105" points="3.76726095 24.5613894 4.80157371 24.5613894 4.80157371 19.3849444 3.76726095 19.3849444"></polygon>
                                                        <polygon id="Fill-689" fill="#FFFFFE" points="3.76726095 19.3849444 4.80157371 19.3849444 4.80157371 18.3530722 3.76726095 18.3530722"></polygon>
                                                        <polygon id="Fill-690" fill="#000105" points="3.76726095 18.3530722 4.80157371 18.3530722 4.80157371 17.316807 3.76726095 17.316807"></polygon>
                                                        <polygon id="Fill-691" fill="#FFFFFE" points="3.76726095 17.316807 4.80157371 17.316807 4.80157371 15.2447647 3.76726095 15.2447647"></polygon>
                                                        <polygon id="Fill-692" fill="#000105" points="3.76726095 15.2447647 4.80157371 15.2447647 4.80157371 13.1746748 3.76726095 13.1746748"></polygon>
                                                        <polygon id="Fill-693" fill="#FFFFFE" points="3.76726095 13.1746748 4.80157371 13.1746748 4.80157371 12.1408502 3.76726095 12.1408502"></polygon>
                                                        <polygon id="Fill-694" fill="#000105" points="3.76726095 12.1408502 4.80157371 12.1408502 4.80157371 10.0683197 3.76726095 10.0683197"></polygon>
                                                        <polygon id="Fill-695" fill="#FFFFFE" points="3.76726095 10.0683197 4.80157371 10.0683197 4.80157371 9.03449505 3.76726095 9.03449505"></polygon>
                                                        <polygon id="Fill-696" fill="#000105" points="3.76726095 9.03449505 4.80157371 9.03449505 4.80157371 3.85805008 3.76726095 3.85805008"></polygon>
                                                        <polygon id="Fill-697" fill="#FFFFFE" points="3.76726095 3.85805008 4.80157371 3.85805008 4.80157371 2.82422542 3.76726095 2.82422542"></polygon>
                                                        <polygon id="Fill-698" fill="#FFFFFE" points="2.73343629 25.5976546 3.76726095 25.5976546 3.76726095 2.82422542 2.73343629 2.82422542"></polygon>
                                                        <polyline id="Fill-699" fill="#35A2CF" points="0.910820021 5.28675865 0.910820021 1.00356161 5.1452057 1.00356161 5.1452057 0.0927415884 1.43168631e-13 0.0927415884 1.43168631e-13 5.28675865 0.910820021 5.28675865"></polyline>
                                                        <polyline id="Fill-700" fill="#35A2CF" points="28.2393256 5.19450518 28.2393256 -1.3282565e-13 23.0931436 -1.3282565e-13 23.0931436 0.910820021 27.3280174 0.910820021 27.3280174 5.19450518 28.2393256 5.19450518"></polyline>
                                                        <polyline id="Fill-701" fill="#35A2CF" points="1.43168631e-13 23.1834447 1.43168631e-13 28.3779498 5.1452057 28.3779498 5.1452057 27.4671298 0.910820021 27.4671298 0.910820021 23.1834447 1.43168631e-13 23.1834447"></polyline>
                                                        <polyline id="Fill-702" fill="#35A2CF" points="27.3280174 23.2747219 27.3280174 27.5588952 23.0931436 27.5588952 23.0931436 28.4697152 28.2393256 28.4697152 28.2393256 23.2747219 27.3280174 23.2747219"></polyline>
                                                    </g>
                                                </g>
                                            </g>
                                        </g>
                                    </g>
                                </g>
                            </g>
                        </g>
                    </g>
                </g>
            </g>
        </g>
    </g>
</svg>