<?xml version="1.0" encoding="UTF-8"?>
<svg width="16px" height="16px" viewBox="0 0 16 16" version="1.1" xmlns="http://www.w3.org/2000/svg" xmlns:xlink="http://www.w3.org/1999/xlink">
    <!-- Generator: Sketch 63.1 (92452) - https://sketch.com -->
    <title>Path</title>
    <desc>Created with Sketch.</desc>
    <g id="Page-1" stroke="none" stroke-width="1" fill="none" fill-rule="evenodd" opacity="0.15">
        <g id="restaurant-details" transform="translate(-20.000000, -440.000000)">
            <g id="Group-10" transform="translate(0.000000, 68.000000)">
                <g id="Group-12" transform="translate(0.000000, 257.000000)">
                    <g id="Group-6" transform="translate(20.000000, 112.000000)">
                        <g id="todo-fill" transform="translate(0.000000, 3.000000)">
                            <polygon id="Path" points="0 0 16 0 16 16 0 16"></polygon>
                            <path d="M11.3333333,1.33333333 L13.3333333,1.33333333 C13.7015232,1.33333333 14,1.63181017 14,2 L14,14 C14,14.3681898 13.7015232,14.6666667 13.3333333,14.6666667 L2.66666667,14.6666667 C2.29847683,14.6666667 2,14.3681898 2,14 L2,2 C2,1.63181017 2.29847683,1.33333333 2.66666667,1.33333333 L4.66666667,1.33333333 L4.66666667,0 L6,0 L6,1.33333333 L10,1.33333333 L10,0 L11.3333333,0 L11.3333333,1.33333333 Z M4.66666667,5.33333333 L4.66666667,6.66666667 L11.3333333,6.66666667 L11.3333333,5.33333333 L4.66666667,5.33333333 Z M4.66666667,8 L4.66666667,9.33333333 L11.3333333,9.33333333 L11.3333333,8 L4.66666667,8 Z" id="Shape" fill="#000000" fill-rule="nonzero"></path>
                        </g>
                    </g>
                </g>
            </g>
        </g>
    </g>
</svg>